<svg xmlns="http://www.w3.org/2000/svg" width="119" height="112" viewBox="0 0 119 112">
    <defs>
        <style>
            .cls-1,.cls-6{fill:none}.cls-3{fill:#f1f4f6}.cls-3,.cls-5,.cls-6{stroke-linecap:round}.cls-3{stroke:#f1f4f6}.cls-3,.cls-5,.cls-6{stroke-width:5px}.cls-5{fill:#fff}.cls-5,.cls-6{stroke:#e5e5e5}.cls-7{stroke:none}
        </style>
    </defs>
    <g id="그룹_1373" transform="translate(-128 -226)">
        <g id="그룹_1357" transform="translate(-4 15)">
            <g id="그룹_1356" transform="translate(-174.367 -342.367)">
                <path id="사각형_1211" d="M0 0H112V112H0z" class="cls-1" transform="translate(313.367 553.367)"/>
                <g id="그룹_919" transform="translate(342.739 566.877)">
                    <g id="합치기_20" fill="#f1f4f6" stroke-linecap="round" stroke-linejoin="round">
                        <path d="M46.476 58.327H-2.5V21.474c0-3.243.65-6.39 1.934-9.353C.67 9.265 2.44 6.701 4.693 4.501 6.94 2.303 9.559.58 12.473-.624 15.489-1.87 18.69-2.5 21.987-2.5c3.297 0 6.498.631 9.513 1.877C34.414.58 37.032 2.304 39.281 4.5c2.254 2.2 4.024 4.764 5.26 7.621 1.284 2.963 1.935 6.11 1.935 9.353v36.853z" class="cls-7" transform="translate(8.628 14.842)"/>
                        <path d="M43.976 55.827V21.474C43.976 9.612 34.13 0 21.986 0 9.843 0 0 9.612 0 21.474v34.353h43.976m0 5H0c-2.761 0-5-2.239-5-5V21.474c0-3.587.72-7.068 2.14-10.346C-1.495 7.972.46 5.14 2.945 2.712c2.478-2.42 5.362-4.32 8.573-5.646C14.84-4.304 18.36-5 21.986-5c3.627 0 7.148.695 10.467 2.066C35.665-1.608 38.55.292 41.028 2.71c2.487 2.429 4.44 5.26 5.808 8.416 1.42 3.279 2.14 6.76 2.14 10.347v34.353c0 2.761-2.238 5-5 5z" transform="translate(8.628 14.842)"/>
                    </g>
                    <path id="패스_238" d="M0 0h60.306" class="cls-3" transform="rotate(180 30.216 36.895)"/>
                    <path id="패스_239" d="M0 0h9.278" class="cls-3" transform="rotate(90 14.063 16.064)"/>
                    <path id="빼기_1" d="M10.9 10.809a10.834 10.834 0 0 1-7.677-3.163A10.834 10.834 0 0 1 0 0h21.8a10.834 10.834 0 0 1-3.22 7.646 10.832 10.832 0 0 1-7.68 3.163z" class="cls-3" transform="translate(19.127 73.792)"/>
                </g>
            </g>
            <g id="그룹_1355" transform="translate(-181.367 -342.367)">
                <path id="사각형_1211-2" d="M0 0H112V112H0z" class="cls-1" transform="translate(313.367 553.367)"/>
                <g id="그룹_919-2" transform="translate(342.739 566.877)">
                    <g id="합치기_20-2" fill="#fff" stroke-linecap="round" stroke-linejoin="round">
                        <path d="M46.476 58.327H-2.5V21.474c0-3.243.65-6.39 1.934-9.353C.67 9.265 2.44 6.701 4.693 4.501 6.94 2.303 9.559.58 12.473-.624 15.489-1.87 18.69-2.5 21.987-2.5c3.297 0 6.498.631 9.513 1.877C34.414.58 37.032 2.304 39.281 4.5c2.254 2.2 4.024 4.764 5.26 7.621 1.284 2.963 1.935 6.11 1.935 9.353v36.853z" class="cls-7" transform="translate(8.628 14.842)"/>
                        <path fill="#e5e5e5" d="M43.976 55.827V21.474C43.976 9.612 34.13 0 21.986 0 9.843 0 0 9.612 0 21.474v34.353h43.976m0 5H0c-2.761 0-5-2.239-5-5V21.474c0-3.587.72-7.068 2.14-10.346C-1.495 7.972.46 5.14 2.945 2.712c2.478-2.42 5.362-4.32 8.573-5.646C14.84-4.304 18.36-5 21.986-5c3.627 0 7.148.695 10.467 2.066C35.665-1.608 38.55.292 41.028 2.71c2.487 2.429 4.44 5.26 5.808 8.416 1.42 3.279 2.14 6.76 2.14 10.347v34.353c0 2.761-2.238 5-5 5z" transform="translate(8.628 14.842)"/>
                    </g>
                    <path id="패스_238-2" d="M0 0h60.306" class="cls-5" transform="rotate(180 30.216 36.895)"/>
                    <path id="패스_239-2" d="M0 0h9.278" class="cls-5" transform="rotate(90 14.063 16.064)"/>
                    <path id="빼기_1-2" d="M10.9 10.809a10.834 10.834 0 0 1-7.677-3.163A10.834 10.834 0 0 1 0 0h21.8a10.834 10.834 0 0 1-3.22 7.646 10.832 10.832 0 0 1-7.68 3.163z" class="cls-5" transform="translate(19.127 73.792)"/>
                </g>
            </g>
        </g>
        <path id="패스_247" d="M6256 300h14" class="cls-6" transform="translate(-6115)"/>
        <path id="패스_249" d="M6256 300h14" class="cls-6" transform="translate(-6041 -42)"/>
        <path id="패스_248" d="M6256 300h14" class="cls-6" transform="translate(-6122 9)"/>
        <path id="패스_250" d="M6256 300h14" class="cls-6" transform="translate(-6048 -33)"/>
    </g>
</svg>
