<svg xmlns="http://www.w3.org/2000/svg" width="29.106" height="12.819" viewBox="0 0 29.106 12.819">
    <defs>
        <style>
            .cls-1{fill:#1877f2}
        </style>
    </defs>
    <g id="그룹_2">
        <path id="패스_6" d="M163.832 203.363H161v-11.428a1.384 1.384 0 0 1 1.417-1.348 1.383 1.383 0 0 1 1.417 1.348z" class="cls-1" transform="translate(-160.998 -190.587)"/>
        <path id="패스_7" d="M194.841 203.363h-2.379a.222.222 0 0 1-.228-.216v-7.342a.14.14 0 0 0-.257-.069l-2.915 4.525a.234.234 0 0 1-.388 0l-2.915-4.525a.14.14 0 0 0-.257.069v7.342a.222.222 0 0 1-.228.216H182.9a.222.222 0 0 1-.228-.216v-11.235a1.361 1.361 0 0 1 1.394-1.325h1.276a.23.23 0 0 1 .194.1l3.218 5a.143.143 0 0 0 .236 0l2.806-4.362a1.658 1.658 0 0 1 1.4-.745h1.651a.222.222 0 0 1 .228.216v12.343a.222.222 0 0 1-.234.224z" class="cls-1" transform="translate(-176.945 -190.587)"/>
        <path id="패스_8" d="M246.91 198.6a2.949 2.949 0 0 0-.593-1.019 4.448 4.448 0 0 0-1.025-.837 10.076 10.076 0 0 0-1.483-.727l-.989-.395a4.814 4.814 0 0 1-1.2-.648 1.2 1.2 0 0 1 .052-1.9 1.839 1.839 0 0 1 1.137-.371 2.363 2.363 0 0 1 2.077 1.137h.006l1.623-1.84a5.106 5.106 0 0 0-1.445-.959 5.556 5.556 0 0 0-2.248-.418 6.219 6.219 0 0 0-1.853.253 4.083 4.083 0 0 0-1.367.7 3.057 3.057 0 0 0-.855 1.074 3.435 3.435 0 0 0-.036 2.709 3.339 3.339 0 0 0 .692.995 4.578 4.578 0 0 0 1 .743 10.316 10.316 0 0 0 1.2.568l1.115.442a3.9 3.9 0 0 1 1.277.742 1.39 1.39 0 0 1 .378 1.027 1.268 1.268 0 0 1-.53 1.074 2 2 0 0 1-1.231.395 2.65 2.65 0 0 1-1.349-.332 2.469 2.469 0 0 1-.953-1.106l-1.662 1.889a4.559 4.559 0 0 0 1.3 1.056 5.7 5.7 0 0 0 2.679.577 5.918 5.918 0 0 0 1.846-.269 4.41 4.41 0 0 0 1.409-.742 3.263 3.263 0 0 0 .9-1.13 3.2 3.2 0 0 0 .317-1.414 3.974 3.974 0 0 0-.189-1.274z" class="cls-1" transform="translate(-217.993 -190.611)"/>
    </g>
</svg>
