<svg xmlns="http://www.w3.org/2000/svg" width="18" height="21.6" viewBox="0 0 18 21.6">
    <defs>
        <style>
            .cls-1{fill:#fff}
        </style>
    </defs>
    <g id="ic_appstore" transform="translate(-37.336)">
        <path id="패스_51" d="M252.29 0a5.485 5.485 0 0 0-3.551 1.922 4.764 4.764 0 0 0-1.163 3.7 4.629 4.629 0 0 0 3.583-1.83A5.142 5.142 0 0 0 252.29 0z" class="cls-1" transform="translate(-201.834)"/>
        <path id="패스_52" d="M54.726 121.976a5.336 5.336 0 0 0-4.026-2.136c-1.89 0-2.689.9-4 .9-1.354 0-2.383-.9-4.017-.9a5.467 5.467 0 0 0-4.4 2.657c-1.524 2.361-1.263 6.8 1.206 10.582.884 1.353 2.064 2.874 3.607 2.888 1.374.013 1.761-.88 3.622-.89s2.214.9 3.585.887c1.545-.012 2.79-1.7 3.673-3.051a15.169 15.169 0 0 0 1.361-2.553 4.641 4.641 0 0 1-.611-8.384z" class="cls-1" transform="translate(0 -114.369)"/>
    </g>
</svg>
