<svg xmlns="http://www.w3.org/2000/svg" width="50.346" height="19.052" viewBox="0 0 50.346 19.052">
    <defs>
        <style>
            .cls-2{fill:#fff}
        </style>
    </defs>
    <g id="main_logo" transform="translate(-160.998 -190.587)">
        <path id="패스_1" fill="#1877f2" d="M284.413 229.986a2.363 2.363 0 1 1-2.363-2.363 2.363 2.363 0 0 1 2.363 2.363z" transform="translate(-73.069 -22.801)"/>
        <g id="그룹_2" transform="translate(160.998 190.587)">
            <path id="패스_6" d="M165.122 209.577H161V192.59a2.033 2.033 0 0 1 2.062-2 2.033 2.033 0 0 1 2.062 2z" class="cls-2" transform="translate(-160.998 -190.587)"/>
            <path id="패스_7" d="M200.381 209.577h-3.462a.326.326 0 0 1-.331-.321v-10.913a.2.2 0 0 0-.374-.1l-4.241 6.726a.336.336 0 0 1-.565 0l-4.241-6.726a.2.2 0 0 0-.374.1v10.912a.326.326 0 0 1-.331.321H183a.326.326 0 0 1-.331-.321v-16.7a2 2 0 0 1 2.028-1.97h1.856a.333.333 0 0 1 .283.154l4.683 7.437a.205.205 0 0 0 .344 0l4.083-6.483a2.4 2.4 0 0 1 2.033-1.107h2.4a.327.327 0 0 1 .331.322v18.347a.326.326 0 0 1-.329.322z" class="cls-2" transform="translate(-174.339 -190.587)"/>
            <path id="패스_8" d="M250.761 202.486a4.406 4.406 0 0 0-.863-1.514 6.5 6.5 0 0 0-1.492-1.244 14.54 14.54 0 0 0-2.158-1.08l-1.439-.587a6.961 6.961 0 0 1-1.74-.963 1.814 1.814 0 0 1 .075-2.829 2.639 2.639 0 0 1 1.655-.552 3.421 3.421 0 0 1 3.023 1.69l.008-.007 2.355-2.734a7.421 7.421 0 0 0-2.1-1.426 7.937 7.937 0 0 0-3.271-.622 8.872 8.872 0 0 0-2.7.376 5.9 5.9 0 0 0-1.989 1.044 4.529 4.529 0 0 0-1.244 1.6 5.206 5.206 0 0 0-.052 4.027 4.966 4.966 0 0 0 1.007 1.479 6.675 6.675 0 0 0 1.452 1.1 14.873 14.873 0 0 0 1.74.845l1.622.658a5.647 5.647 0 0 1 1.858 1.1 2.092 2.092 0 0 1 .55 1.526 1.9 1.9 0 0 1-.772 1.6 2.876 2.876 0 0 1-1.792.587 3.792 3.792 0 0 1-1.963-.493 3.647 3.647 0 0 1-1.386-1.643l-2.419 2.808a6.663 6.663 0 0 0 1.895 1.57 8.156 8.156 0 0 0 3.9.858 8.444 8.444 0 0 0 2.686-.4 6.373 6.373 0 0 0 2.051-1.1 4.811 4.811 0 0 0 1.778-3.78 6.022 6.022 0 0 0-.275-1.894z" class="cls-2" transform="translate(-208.681 -190.607)"/>
        </g>
    </g>
</svg>
